<?xml version="1.0" standalone="no"?>
<!DOCTYPE svg PUBLIC "-//W3C//DTD SVG 20010904//EN"
 "http://www.w3.org/TR/2001/REC-SVG-20010904/DTD/svg10.dtd">
<svg version="1.0" xmlns="http://www.w3.org/2000/svg"
 width="260.000000pt" height="260.000000pt" viewBox="0 0 260.000000 260.000000"
 preserveAspectRatio="xMidYMid meet">
<metadata>
Created by potrace 1.11, written by Peter Selinger 2001-2013
</metadata>
<g transform="translate(0.000000,260.000000) scale(0.100000,-0.100000)"
fill="#000000" stroke="none">
<path d="M0 1300 l0 -1300 1300 0 1300 0 0 1300 0 1300 -1300 0 -1300 0 0
-1300z m1798 1162 c7 -5 10 -15 7 -23 -3 -8 -80 -86 -171 -173 -108 -103 -181
-165 -210 -178 -47 -20 -314 -47 -481 -48 -72 0 -84 -3 -93 -20 -7 -12 -9 -86
-8 -197 l3 -178 170 -3 c149 -3 293 7 525 34 52 6 75 -5 66 -32 -4 -11 -75
-90 -159 -176 -195 -201 -193 -200 -419 -207 -101 -4 -171 -10 -178 -17 -8 -8
-8 -91 0 -303 6 -161 8 -301 5 -312 -4 -10 -72 -62 -153 -115 -81 -53 -163
-109 -183 -125 -47 -37 -88 -48 -90 -23 -1 11 -2 219 -3 464 l-1 445 -162 5
c-89 3 -165 8 -169 12 -14 15 27 57 169 174 80 65 150 128 155 139 13 27 3
446 -11 463 -8 10 -44 13 -146 12 -179 -2 -191 -2 -191 10 0 14 59 72 226 221
l142 126 238 -5 c240 -4 872 13 974 28 78 10 133 11 148 2z m192 -639 c0 -9
-9 -26 -20 -38 -12 -12 -23 -40 -26 -61 l-5 -39 22 40 c23 42 59 83 59 66 0
-19 -72 -141 -80 -136 -4 2 -10 -14 -14 -37 -4 -23 -20 -60 -36 -82 -21 -28
-30 -52 -30 -78 0 -63 20 -74 146 -82 147 -10 149 -10 229 -5 88 5 94 -9 30
-77 -26 -28 -45 -58 -44 -69 2 -34 0 -38 -15 -26 -9 8 -16 8 -20 2 -4 -5 -2
-12 4 -16 15 -9 2 -25 -20 -25 -13 0 -17 -5 -14 -14 6 -15 -100 -138 -123
-144 -7 -2 -13 -9 -13 -15 0 -17 -252 -278 -268 -277 -7 0 -17 -12 -23 -26 -9
-26 -10 -26 -23 -8 -14 18 -15 18 -33 1 -11 -9 -23 -17 -27 -17 -11 0 4 42 21
62 9 10 19 37 24 61 4 24 24 72 45 107 20 35 39 82 42 105 4 41 3 43 -39 67
-34 19 -58 25 -105 26 -38 0 -73 6 -95 18 -19 9 -63 20 -99 23 -78 7 -86 23
-37 72 19 19 65 72 103 119 37 47 73 90 80 95 6 6 28 32 49 59 39 52 92 111
244 268 52 54 98 98 103 98 4 0 8 -8 8 -17z m-360 -1183 c0 -5 -5 -10 -11 -10
-5 0 -7 5 -4 10 3 6 8 10 11 10 2 0 4 -4 4 -10z"/>
<path d="M1891 1623 c-1 -6 -4 -20 -7 -30 -5 -17 -5 -17 6 0 6 10 9 23 6 30
-3 9 -5 9 -5 0z"/>
<path d="M2180 1319 c0 -5 5 -7 10 -4 6 3 10 8 10 11 0 2 -4 4 -10 4 -5 0 -10
-5 -10 -11z"/>
<path d="M1477 1247 c-55 -47 -47 -81 12 -51 26 13 31 21 31 50 0 19 -1 34 -2
34 -2 -1 -20 -15 -41 -33z"/>
</g>
</svg>
